<svg id="Layer_1" data-name="Layer 1" xmlns="http://www.w3.org/2000/svg" viewBox="0 0 40 40"><defs><style>.cls-1{fill:#0cbdd3;}</style></defs><title>waveArtboard 3</title><path class="cls-1" d="M28.36,39.37v-1h3l0,.69,0,.31Zm-3,0h-3v-1h3Zm-6.06,0h-3v-1h3Zm-6.06,0h-3v-1h3Zm-6.16-.2a8.55,8.55,0,0,1-2.93-1.29l.57-.83a7.28,7.28,0,0,0,2.58,1.14Zm27.54-.43-.38-.93a7.26,7.26,0,0,0,2.35-1.56l.7.72A8.41,8.41,0,0,1,34.59,38.74ZM1.89,35.58a8.21,8.21,0,0,1-1.21-3l1-.19A7.11,7.11,0,0,0,2.73,35Zm37.19-1.25-.92-.4a7.23,7.23,0,0,0,.6-2.75l1,0A8.18,8.18,0,0,1,39.08,34.33ZM1.52,29.5h-1v-3h1Zm38.25-1.34h-1v-3h1ZM1.52,23.44h-1v-3h1ZM39.77,22.1h-1v-3h1ZM1.52,17.38h-1v-3h1ZM39.77,16h-1V13h1ZM1.52,11.31h-1v-3l1,0ZM39.77,10h-1V8.5a7.75,7.75,0,0,0-.15-1.45l1-.2a9.14,9.14,0,0,1,.17,1.65ZM2.14,5.54l-.91-.4A8.22,8.22,0,0,1,3.05,2.51l.7.72A7.13,7.13,0,0,0,2.14,5.54Zm35.41-1.1a7.42,7.42,0,0,0-2-2l.57-.82a8.24,8.24,0,0,1,2.24,2.28ZM6.1,1.68,5.72.75A8.27,8.27,0,0,1,8.87.13v1A7.28,7.28,0,0,0,6.1,1.68ZM33,1.3a7.76,7.76,0,0,0-1.6-.17H30.08v-1h1.31a8.6,8.6,0,0,1,1.82.2Zm-5.94-.17H24v-1h3ZM21,1.13H18v-1h3Zm-6.06,0h-3v-1h3Z"/><path class="cls-1" d="M.53,20.25H19.65a0,0,0,0,1,0,0V39.37a0,0,0,0,1,0,0H6.15A5.62,5.62,0,0,1,.53,33.75V20.25a0,0,0,0,1,0,0Z"/></svg>