<svg xmlns="http://www.w3.org/2000/svg" viewBox="0 0 64.5 9.04"  height="9.04" width="64.5"><defs><style>.cls-1{isolation:isolate;}.cls-2{fill:#ea4346;}.cls-2,.cls-3{mix-blend-mode:lighten;}.cls-3{fill:#fff;}</style></defs><title>waveArtboard 1</title><g class="cls-1"><g id="Layer_1" data-name="Layer 1"><path class="cls-2" d="M43,1.09c-2.4,0-3.62,1.76-4.92,3.63s-2.81,4.05-5.74,4.05-4.35-2.06-5.74-4-2.51-3.63-4.92-3.63-3.62,1.76-4.92,3.63S13.94,8.77,11,8.77s-4.36-2.06-5.74-4S2.76,1.09.36,1.09v-1C3.29.09,4.72,2.15,6.1,4.14S8.61,7.77,11,7.77,14.64,6,15.93,4.14s2.82-4,5.74-4S26,2.15,27.41,4.14s2.52,3.63,4.92,3.63S36,6,37.25,4.14s2.82-4,5.74-4"/><path class="cls-3" d="M43,1.1h0c2.41,0,3.63,1.76,4.92,3.63s2.82,4.05,5.75,4.05,4.36-2.06,5.74-4,2.52-3.63,4.92-3.63v-1C61.4.09,60,2.15,58.58,4.14s-2.52,3.63-4.92,3.63S50,6,48.74,4.14s-2.82-4-5.75-4h0Z"/></g></g></svg>