<svg id="Layer_1" data-name="Layer 1" xmlns="http://www.w3.org/2000/svg" viewBox="0 0 64.5 9.04" height="9.04" width="64.5"><defs><style>.cls-1{fill:#ea4346;}</style></defs><title>linesArtboard 1</title><path class="cls-1" d="M53.66,8.77c-2.93,0-4.36-2.06-5.75-4S45.4,1.09,43,1.09s-3.62,1.76-4.92,3.63-2.81,4.05-5.74,4.05-4.35-2.06-5.74-4-2.51-3.63-4.92-3.63-3.62,1.76-4.92,3.63S13.94,8.77,11,8.77s-4.36-2.06-5.74-4S2.76,1.09.36,1.09v-1C3.29.09,4.72,2.15,6.1,4.14S8.61,7.77,11,7.77,14.64,6,15.93,4.14s2.82-4,5.74-4S26,2.15,27.41,4.14s2.52,3.63,4.92,3.63S36,6,37.25,4.14s2.82-4,5.74-4,4.36,2.06,5.75,4.05,2.51,3.63,4.92,3.63S57.29,6,58.58,4.14s2.82-4,5.74-4v1c-2.4,0-3.62,1.76-4.92,3.63S56.59,8.77,53.66,8.77Z"/></svg>