<svg id="Layer_1" data-name="Layer 1" xmlns="http://www.w3.org/2000/svg" viewBox="0 0 163 14" height="14px" width="163px" ><defs><style>.cls-1{fill:#231f20;}.cls-2{fill:#e41d38;}</style></defs><title>smxArtboard 6 copy</title><path class="cls-1" d="M8.35,9.67c0-.92-1.09-1.13-2.41-1.2-2.87-.21-4.76-1.2-4.79-4.06-.11-5.7,10.15-5.7,10.07,0H8c0-1.76-3.56-1.61-3.66,0-.08,1,.9,1.21,2.09,1.34,2.62.28,5.19.68,5.19,4C11.64,15.24.88,15.33,1,9.52H4.22C4.22,11.2,8.35,11.22,8.35,9.67Z"/><path class="cls-1" d="M32.59,9V.12h3.29v9c0,2.95-2.56,4.66-5.32,4.66S25.23,12,25.23,9.09v-9h3.28V9c0,1.09,1,1.63,2.06,1.63S32.59,10.12,32.59,9Z"/><path class="cls-1" d="M44.56,13.75H39.42V.13h5.14C53.44.16,53.44,13.71,44.56,13.75ZM42.9,10.58h1.66c4.34,0,4.34-7.29,0-7.29H42.9Z"/><path class="cls-1" d="M59.65,10.69v3.06H52.74V10.69h1.73V3.16h-1.6v-3h6.64v3h-1.6v7.53Z"/><path class="cls-2" d="M95.18.08h1.26V13.86H92.85V7.74L89.92,10.8h-.39L86.62,7.74v6.12H83V.08h1.3l5.38,6Z"/><path class="cls-2" d="M108,12.11h-5.42l-.79,1.73H98.4v-.5L104.57,0h1.51l6.19,13.38v.51h-3.43Zm-2.73-6.59-1.54,3.6h3.13Z"/><path class="cls-2" d="M135.58,13.34v.51h-3.92l-2.35-4h-1.82v4H124V.14h6c5.39,0,6.37,6.51,2.9,8.86ZM130,3.27c-.83,0-1.69,0-2.51,0V6.7H130c1.9,0,2-3.42,0-3.44Z"/><path class="cls-2" d="M143.39,10.69v3.06h-6.91V10.69h1.74V3.16h-1.59v-3h6.64v3h-1.6v7.53Z"/><path class="cls-2" d="M150.42,9.47l-2.62,4.28h-3.64v-.52l4.4-6.7L144.63.65V.12h3.57l2.22,3.55h.09L152.79.12h3.51V.65l-3.93,5.88,4.42,6.7v.52h-3.67l-2.58-4.28Z"/><path class="cls-1" d="M71.19,7.28A3.31,3.31,0,1,1,64.58,7a3.29,3.29,0,0,1,3.31-3.56V.12A6.56,6.56,0,0,0,61.1,7c0,9.07,13.27,9.16,13.57.3Z"/><path class="cls-1" d="M19.87.12H13.08V3.24h3.34V13.75h3.45V3.24h0Z"/><path class="cls-2" d="M118.55,13.85V.13h-6.84V3.26h3.38V13.85Z"/><circle class="cls-1" cx="159.59" cy="12.08" r="1.78"/></svg>