<svg id="Layer_1" data-name="Layer 1" xmlns="http://www.w3.org/2000/svg" viewBox="0 0 104 14" width="104px" height="14px"><defs><style>.cls-1{fill:#231f20;}.cls-2{fill:#e41d38;}</style></defs><title>smxArtboard 6</title><path class="cls-1" d="M1.11,6.88c0-9,13.39-9,13.39,0S1.11,15.93,1.11,6.88Zm10.1,0a3.4,3.4,0,1,0-6.79,0A3.41,3.41,0,1,0,11.21,6.88Z"/><path class="cls-1" d="M24.61,8.94V.09h3.26V9c0,2.93-2.54,4.63-5.28,4.63s-5.3-1.7-5.3-4.63V.09h3.26V8.94c0,1.09,1.05,1.62,2,1.62S24.61,10,24.61,8.94Z"/><path class="cls-1" d="M42.91,13.18v.51H39l-2.33-4H34.9v4H31.42V.09h6c5.34,0,6.31,6.45,2.87,8.78Zm-5.53-10c-.81,0-1.67,0-2.48,0V6.6h2.48C39.26,6.6,39.36,3.22,37.38,3.2Z"/><path class="cls-2" d="M59.32,6.62A2.94,2.94,0,0,1,61,9.39a4,4,0,0,1-4.23,4.3H50.35V.09h5.8a4.18,4.18,0,0,1,4.24,4.18A3.27,3.27,0,0,1,59.32,6.62ZM53.71,3.2V5.39H55.9a1.1,1.1,0,0,0,0-2.19Zm0,5.09V10.6h2.77c1.4,0,1.38-2.31,0-2.31Z"/><path class="cls-2" d="M67.14,10.56h4.93v3.13H63.65V.09h3.49Z"/><path class="cls-2" d="M96.08.2c2.66,0,5.42,1.4,6.06,4.67H98.83a2.7,2.7,0,0,0-2.75-1.58C94,3.29,92.81,5,92.81,7c0,2.19,1.28,3.62,3.27,3.62A2.69,2.69,0,0,0,98.91,9H96.1V6h6.23A9.53,9.53,0,0,1,102,9.9c-.95,2.75-3.45,3.8-5.88,3.8A6.51,6.51,0,0,1,89.32,7,6.52,6.52,0,0,1,96.08.2Z"/><path class="cls-2" d="M84.19,6.93a3.28,3.28,0,1,1-6.54,0,3.26,3.26,0,0,1,3.27-3.53V.15a6.46,6.46,0,0,0-6.7,6.77c0,9,13.37,9,13.39,0Z"/></svg>