<svg id="Layer_1" data-name="Layer 1" xmlns="http://www.w3.org/2000/svg" viewBox="0 0 40 40"><defs><style>.cls-1{fill:#f542a1;}</style></defs><title>waveArtboard 11</title><path class="cls-1" d="M28.36,39.62v-1h3l0,.69,0,.31Zm-3,0h-3v-1h3Zm-6.06,0h-3v-1h3Zm-6.06,0h-3v-1h3Zm-6.16-.2a8.39,8.39,0,0,1-2.93-1.3l.57-.82a7.28,7.28,0,0,0,2.58,1.14ZM34.59,39l-.38-.93a7.26,7.26,0,0,0,2.35-1.56l.7.72A8.41,8.41,0,0,1,34.59,39ZM1.89,35.83a8.21,8.21,0,0,1-1.21-3l1-.19a7.11,7.11,0,0,0,1.07,2.61Zm37.19-1.25-.92-.4a7.23,7.23,0,0,0,.6-2.75l1,0A8.18,8.18,0,0,1,39.08,34.58ZM1.52,29.75h-1v-3h1Zm38.25-1.34h-1v-3h1ZM1.52,23.69h-1v-3h1Zm38.25-1.34h-1v-3h1ZM1.52,17.62h-1v-3h1Zm38.25-1.34h-1v-3h1ZM1.52,11.56h-1v-3l1,0Zm38.25-1.34h-1V8.75a7.75,7.75,0,0,0-.15-1.45l1-.2a9.14,9.14,0,0,1,.17,1.65ZM2.14,5.79l-.91-.4A8.22,8.22,0,0,1,3.05,2.76l.7.72A7.13,7.13,0,0,0,2.14,5.79Zm35.41-1.1a7.42,7.42,0,0,0-2-2l.57-.82a8.24,8.24,0,0,1,2.24,2.28ZM6.1,1.93,5.72,1A8.27,8.27,0,0,1,8.87.38v1A7.28,7.28,0,0,0,6.1,1.93ZM33,1.55a7.76,7.76,0,0,0-1.6-.17H30.08v-1h1.31a8.6,8.6,0,0,1,1.82.2Zm-5.94-.17H24v-1h3ZM21,1.38H18v-1h3Zm-6.06,0h-3v-1h3Z"/><path class="cls-1" d="M.53,20.5H19.65a0,0,0,0,1,0,0V39.62a0,0,0,0,1,0,0H6.15A5.62,5.62,0,0,1,.53,34V20.5a0,0,0,0,1,0,0Z"/></svg>