<svg id="Layer_1" data-name="Layer 1" xmlns="http://www.w3.org/2000/svg" viewBox="0 0 40 40"><defs><style>.cls-1{fill:#f78a28;}</style></defs><title>waveArtboard 6</title><path class="cls-1" d="M28.22,39.62v-1h3l0,.69,0,.31Zm-3,0h-3v-1h3Zm-6.06,0h-3v-1h3Zm-6.07,0H10v-1h3Zm-6.15-.2A8.31,8.31,0,0,1,4,38.12l.57-.82a7.21,7.21,0,0,0,2.58,1.14ZM34.45,39l-.38-.93a7.37,7.37,0,0,0,2.35-1.56l.7.72A8.52,8.52,0,0,1,34.45,39ZM1.74,35.83a8.19,8.19,0,0,1-1.2-3l1-.19a7.26,7.26,0,0,0,1.06,2.61Zm37.19-1.25-.92-.4a7.24,7.24,0,0,0,.61-2.75l1,0A8.39,8.39,0,0,1,38.93,34.58ZM1.38,29.75h-1v-3h1Zm38.24-1.34h-1v-3h1ZM1.38,23.69h-1v-3h1Zm38.24-1.34h-1v-3h1ZM1.38,17.62h-1v-3h1Zm38.24-1.34h-1v-3h1ZM1.38,11.56h-1v-3l1,0Zm38.24-1.34h-1V8.75a7.75,7.75,0,0,0-.14-1.45l1-.2a8.31,8.31,0,0,1,.16,1.65ZM2,5.79l-.92-.4A8.38,8.38,0,0,1,2.9,2.76l.7.72A7.26,7.26,0,0,0,2,5.79Zm35.4-1.1a7.39,7.39,0,0,0-2-2L36,1.86a8.38,8.38,0,0,1,2.24,2.28ZM6,1.93,5.58,1A8.22,8.22,0,0,1,8.72.38v1A7.27,7.27,0,0,0,6,1.93Zm26.88-.38a7.66,7.66,0,0,0-1.59-.17H29.94v-1h1.31a8.44,8.44,0,0,1,1.81.2Zm-5.93-.17h-3v-1h3Zm-6.07,0h-3v-1h3Zm-6.06,0h-3v-1h3Z"/><path class="cls-1" d="M.39,20.5H19.51a0,0,0,0,1,0,0V39.62a0,0,0,0,1,0,0H6A5.62,5.62,0,0,1,.39,34V20.5a0,0,0,0,1,0,0Z"/></svg>